<?xml version="1.0" standalone="no"?>
<!DOCTYPE svg PUBLIC "-//W3C//DTD SVG 20010904//EN"
 "http://www.w3.org/TR/2001/REC-SVG-20010904/DTD/svg10.dtd">
<svg version="1.0" xmlns="http://www.w3.org/2000/svg"
 width="192.000000pt" height="192.000000pt" viewBox="0 0 192.000000 192.000000"
 preserveAspectRatio="xMidYMid meet">
<metadata>
Created by potrace 1.11, written by Peter Selinger 2001-2013
</metadata>
<g transform="translate(0.000000,192.000000) scale(0.100000,-0.100000)"
fill="#000000" stroke="none">
<path d="M265 1654 l-28 -25 7 -116 c4 -64 8 -119 10 -122 2 -3 7 -24 10 -46
8 -53 41 -167 66 -233 115 -302 367 -580 657 -725 178 -90 337 -132 540 -143
102 -6 102 -6 127 21 26 28 26 30 26 197 0 166 0 169 -25 193 -17 18 -35 25
-62 25 -71 1 -148 11 -222 31 -41 11 -86 17 -101 14 -15 -3 -66 -45 -120 -100
l-93 -94 -31 16 c-172 88 -365 276 -464 453 l-32 56 95 94 c54 54 97 105 100
120 3 15 -3 60 -14 101 -12 41 -23 111 -26 157 -7 96 -16 127 -44 141 -12 7
-87 11 -184 11 -162 0 -164 0 -192 -26z"/>
</g>
</svg>
